<svg width="208" height="60" viewBox="0 0 208 60" fill="none" xmlns="http://www.w3.org/2000/svg">
<path id="Vector" d="M144.684 47.1442C144.683 49.5222 145.387 51.847 146.708 53.8247C148.028 55.8024 149.905 57.344 152.102 58.2547C154.299 59.1654 156.716 59.4042 159.049 58.9408C161.381 58.4775 163.524 57.3329 165.205 55.6518C166.887 53.9706 168.033 51.8285 168.497 49.4963C168.961 47.1641 168.723 44.7465 167.814 42.5495C166.904 40.3524 165.363 38.4745 163.386 37.1533C161.409 35.8321 159.084 35.1269 156.706 35.1269C153.519 35.1294 150.464 36.3962 148.21 38.6492C145.956 40.9022 144.688 43.9574 144.684 47.1442ZM22.137 35.1269C24.5136 35.1278 26.8366 35.8335 28.8122 37.1545C30.7878 38.4756 32.3273 40.3528 33.2362 42.5487C34.145 44.7447 34.3823 47.1608 33.918 49.4917C33.4538 51.8225 32.3089 53.9633 30.628 55.6435C28.9472 57.3236 26.8059 58.4677 24.4749 58.931C22.1439 59.3943 19.7278 59.156 17.5322 58.2463C15.3366 57.3366 13.4601 55.7963 12.1398 53.8202C10.8195 51.8441 10.1148 49.5208 10.1148 47.1442C10.1187 43.9582 11.386 40.9038 13.6389 38.6509C15.8917 36.3981 18.9462 35.1307 22.1322 35.1269H22.137ZM-15 0.484375H17.5742L10.9819 24.3544L55.5444 0H83.3281L83.9384 16.7981L99.4384 23.9475L105.125 16.9531H112.691L114.222 24.7031C180.852 18.4062 207.517 38.8323 207.517 38.8323C207.517 38.8323 203.875 41.2542 194.957 42.8963C193.078 44.4995 193.184 49.8906 193.184 49.8906H204.906V57.6406H179.719V44.33C178.827 44.3639 177.563 44.5286 176.299 44.5577C175.925 41.723 174.94 39.0033 173.413 36.5861C171.886 34.1688 169.853 32.1117 167.454 30.5565C165.054 29.0013 162.346 27.9851 159.516 27.578C156.686 27.1709 153.801 27.3827 151.061 28.1985C148.321 29.0144 145.79 30.4151 143.643 32.3039C141.497 34.1927 139.786 36.5246 138.628 39.1389C137.47 41.7532 136.893 44.5875 136.937 47.4464C136.98 50.3053 137.644 53.1207 138.881 55.6983H39.9523C41.2352 53.0223 41.899 50.0918 41.8947 47.1242C41.8903 44.1566 41.2178 41.2281 39.9271 38.5559C38.6365 35.8837 36.7607 33.5364 34.439 31.6881C32.1172 29.8398 29.4091 28.538 26.5156 27.8792C23.6221 27.2204 20.6173 27.2215 17.7243 27.8825C14.8313 28.5436 12.1242 29.8475 9.80388 31.6975C7.48357 33.5476 5.60959 35.8964 4.32095 38.5695C3.03231 41.2427 2.36209 44.1718 2.36 47.1394C2.36 47.74 2.38906 48.3309 2.44234 48.917H-14.9952L-15 0.484375Z" fill="#111111"/>
</svg>
