<svg width="27" height="27" viewBox="0 0 27 27" fill="none" xmlns="http://www.w3.org/2000/svg">
<g id="Group">
<path id="Vector" d="M24.9442 18.4334C25.2162 17.7854 24.4389 17.2334 23.7869 17.5214C22.4837 18.0934 21.0755 18.3877 19.6522 18.3854C14.0722 18.3854 9.54958 13.9534 9.54958 8.48538C9.54753 6.63917 10.072 4.83067 11.0616 3.27205C11.4402 2.67472 10.9856 1.84805 10.2922 2.02405C4.94691 3.38805 1.00024 8.15072 1.00024 13.816C1.00024 20.5454 6.56691 26 13.4349 26C18.6349 26 23.0882 22.8734 24.9442 18.4334Z" stroke="#901ABB" stroke-width="2"/>
<path id="Vector_2" d="M17.8149 2.1373C17.1083 1.6653 16.2656 2.50797 16.7363 3.21464L17.5763 4.47464C17.917 4.98552 18.0989 5.58587 18.0989 6.19997C18.0989 6.81407 17.917 7.41442 17.5763 7.9253L16.7363 9.1853C16.2656 9.89197 17.1096 10.7346 17.8163 10.2626L19.0749 9.42264C19.5858 9.08188 20.1862 8.90003 20.8003 8.90003C21.4144 8.90003 22.0147 9.08188 22.5256 9.42264L23.7856 10.2626C24.4923 10.7346 25.3349 9.89197 24.8629 9.1853L24.0229 7.9253C23.6822 7.41442 23.5003 6.81407 23.5003 6.19997C23.5003 5.58587 23.6822 4.98552 24.0229 4.47464L24.8629 3.21464C25.3349 2.50797 24.4923 1.6653 23.7843 2.1373L22.5256 2.9773C22.0147 3.31806 21.4144 3.4999 20.8003 3.4999C20.1862 3.4999 19.5858 3.31806 19.0749 2.9773L17.8149 2.1373Z" stroke="#901ABB" stroke-width="2"/>
</g>
</svg>
