<svg width="27" height="27" viewBox="0 0 27 27" fill="none" xmlns="http://www.w3.org/2000/svg">
<g id="Group">
<path id="Vector" d="M24.944 18.4335C25.216 17.7855 24.4387 17.2335 23.7867 17.5215C22.4834 18.0935 21.0753 18.3878 19.652 18.3855C14.072 18.3855 9.54933 13.9535 9.54933 8.48547C9.54729 6.63927 10.0718 4.83076 11.0613 3.27214C11.44 2.67481 10.9853 1.84814 10.292 2.02414C4.94667 3.38814 1 8.15081 1 13.8161C1 20.5455 6.56667 26.0001 13.4347 26.0001C18.6347 26.0001 23.088 22.8735 24.944 18.4335Z" stroke="#FCFCFC" stroke-width="2"/>
<path id="Vector_2" d="M17.8147 2.13736C17.108 1.66536 16.2653 2.50803 16.736 3.2147L17.576 4.4747C17.9168 4.98558 18.0986 5.58593 18.0986 6.20003C18.0986 6.81413 17.9168 7.41448 17.576 7.92536L16.736 9.18536C16.2653 9.89203 17.1093 10.7347 17.816 10.2627L19.0747 9.4227C19.5856 9.08194 20.1859 8.9001 20.8 8.9001C21.4141 8.9001 22.0145 9.08194 22.5253 9.4227L23.7853 10.2627C24.492 10.7347 25.3347 9.89203 24.8627 9.18536L24.0227 7.92536C23.6819 7.41448 23.5001 6.81413 23.5001 6.20003C23.5001 5.58593 23.6819 4.98558 24.0227 4.4747L24.8627 3.2147C25.3347 2.50803 24.492 1.66536 23.784 2.13736L22.5253 2.97736C22.0145 3.31812 21.4141 3.49997 20.8 3.49997C20.1859 3.49997 19.5856 3.31812 19.0747 2.97736L17.8147 2.13736Z" stroke="#FCFCFC" stroke-width="2"/>
</g>
</svg>
